<svg fill="url(#grad)" xmlns="http://www.w3.org/2000/svg"  viewBox="0 0 30 30" width="96px" height="96px">
    <path d="M15,12.124c-1.589,0-2.876,1.288-2.876,2.876s1.288,2.876,2.876,2.876s2.876-1.288,2.876-2.876S16.589,12.124,15,12.124z"/>
    <circle cx="15" cy="15" r="3"/>
    <path d="M15,2C7.832,2,2,7.832,2,15s5.832,13,13,13s13-5.832,13-13S22.168,2,15,2z M24,18.333C24,21.458,21.458,24,18.334,24h-6.667	C8.542,24,6,21.458,6,18.334v-6.667C6,8.542,8.542,6,11.666,6h6.667C21.458,6,24,8.542,24,11.666V18.333z"/><path d="M18.333,8h-6.667C9.645,8,8,9.645,8,11.667v6.667C8,20.355,9.645,22,11.667,22h6.667C20.355,22,22,20.355,22,18.333v-6.667	C22,9.645,20.355,8,18.333,8z M15,20c-2.757,0-5-2.243-5-5s2.243-5,5-5s5,2.243,5,5S17.757,20,15,20z M19.667,11	C19.299,11,19,10.701,19,10.333s0.299-0.667,0.667-0.667c0.368,0,0.667,0.299,0.667,0.667S20.035,11,19.667,11z"/>
    <defs>
        <linearGradient id="grad" x1="0%" y1="0%" x2="100%" y2="0%">
            <stop offset="2%" stop-color="#28F5BE" />
            <stop offset="90%" stop-color="#4C388B" />
        </linearGradient>
    </defs>
</svg>