<svg width="375" height="41" viewBox="0 0 375 41" fill="transparent" xmlns="http://www.w3.org/2000/svg">
    <path d="M31.6709 35.1484C30.2471 36.8535 28.2344 38.1807 25.6328 39.1299C23.0312 40.0615 20.1484 40.5273 16.9844 40.5273C13.6621 40.5273 10.7441 39.8066 8.23047 38.3652C5.73438 36.9062 3.80078 34.7969 2.42969 32.0371C1.07617 29.2773 0.381836 26.0342 0.34668 22.3076V19.6973C0.34668 15.8652 0.988281 12.5518 2.27148 9.75684C3.57227 6.94434 5.43555 4.7998 7.86133 3.32324C10.3047 1.8291 13.1611 1.08203 16.4307 1.08203C20.9834 1.08203 24.543 2.17187 27.1094 4.35156C29.6758 6.51367 31.1963 9.66895 31.6709 13.8174H23.9717C23.6201 11.6201 22.8379 10.0117 21.625 8.99219C20.4297 7.97266 18.7773 7.46289 16.668 7.46289C13.9785 7.46289 11.9307 8.47363 10.5244 10.4951C9.11816 12.5166 8.40625 15.5225 8.38867 19.5127V21.9648C8.38867 25.9902 9.15332 29.0312 10.6826 31.0879C12.2119 33.1445 14.4531 34.1729 17.4062 34.1729C20.377 34.1729 22.4951 33.54 23.7607 32.2744V25.6562H16.5625V19.8291H31.6709V35.1484ZM45.6455 40H37.999V11.4707H45.6455V40ZM37.5508 4.08789C37.5508 2.94531 37.9287 2.00488 38.6846 1.2666C39.458 0.52832 40.5039 0.15918 41.8223 0.15918C43.123 0.15918 44.1602 0.52832 44.9336 1.2666C45.707 2.00488 46.0938 2.94531 46.0938 4.08789C46.0938 5.24805 45.6982 6.19727 44.9072 6.93555C44.1338 7.67383 43.1055 8.04297 41.8223 8.04297C40.5391 8.04297 39.502 7.67383 38.7109 6.93555C37.9375 6.19727 37.5508 5.24805 37.5508 4.08789ZM50.7607 25.4717C50.7607 22.6416 51.3057 20.1191 52.3955 17.9043C53.4854 15.6895 55.0498 13.9756 57.0889 12.7627C59.1455 11.5498 61.5273 10.9434 64.2344 10.9434C68.084 10.9434 71.2217 12.1211 73.6475 14.4766C76.0908 16.832 77.4531 20.0312 77.7344 24.0742L77.7871 26.0254C77.7871 30.4023 76.5654 33.918 74.1221 36.5723C71.6787 39.209 68.4004 40.5273 64.2871 40.5273C60.1738 40.5273 56.8867 39.209 54.4258 36.5723C51.9824 33.9355 50.7607 30.3496 50.7607 25.8145V25.4717ZM58.3809 26.0254C58.3809 28.7324 58.8906 30.8066 59.9102 32.248C60.9297 33.6719 62.3887 34.3838 64.2871 34.3838C66.1328 34.3838 67.5742 33.6807 68.6113 32.2744C69.6484 30.8506 70.167 28.583 70.167 25.4717C70.167 22.8174 69.6484 20.7607 68.6113 19.3018C67.5742 17.8428 66.1152 17.1133 64.2344 17.1133C62.3711 17.1133 60.9297 17.8428 59.9102 19.3018C58.8906 20.7432 58.3809 22.9844 58.3809 26.0254ZM92.7373 30.6924L98.0371 11.4707H106L96.376 40H89.0986L79.4746 11.4707H87.4375L92.7373 30.6924ZM125.485 40C125.134 39.3145 124.879 38.4619 124.721 37.4424C122.875 39.499 120.476 40.5273 117.522 40.5273C114.728 40.5273 112.407 39.7188 110.562 38.1016C108.733 36.4844 107.819 34.4453 107.819 31.9844C107.819 28.9609 108.936 26.6406 111.168 25.0234C113.418 23.4062 116.661 22.5889 120.897 22.5713H124.404V20.9365C124.404 19.6182 124.062 18.5635 123.376 17.7725C122.708 16.9814 121.645 16.5859 120.186 16.5859C118.902 16.5859 117.892 16.8936 117.153 17.5088C116.433 18.124 116.072 18.9678 116.072 20.04H108.452C108.452 18.3877 108.962 16.8584 109.981 15.4521C111.001 14.0459 112.442 12.9473 114.306 12.1562C116.169 11.3477 118.261 10.9434 120.581 10.9434C124.097 10.9434 126.883 11.8311 128.939 13.6064C131.014 15.3643 132.051 17.8428 132.051 21.042V33.4082C132.068 36.1152 132.446 38.1631 133.185 39.5518V40H125.485ZM119.184 34.7002C120.309 34.7002 121.346 34.4541 122.295 33.9619C123.244 33.4521 123.947 32.7754 124.404 31.9316V27.0273H121.557C117.742 27.0273 115.712 28.3457 115.466 30.9824L115.439 31.4307C115.439 32.3799 115.773 33.1621 116.441 33.7773C117.109 34.3926 118.023 34.7002 119.184 34.7002ZM144.918 11.4707L145.155 14.7666C147.194 12.2178 149.928 10.9434 153.355 10.9434C156.379 10.9434 158.629 11.8311 160.105 13.6064C161.582 15.3818 162.338 18.0361 162.373 21.5693V40H154.753V21.7539C154.753 20.1367 154.401 18.9678 153.698 18.2471C152.995 17.5088 151.826 17.1396 150.191 17.1396C148.047 17.1396 146.438 18.0537 145.366 19.8818V40H137.746V11.4707H144.918ZM181.305 40.5273C177.121 40.5273 173.711 39.2441 171.074 36.6777C168.455 34.1113 167.146 30.6924 167.146 26.4209V25.6826C167.146 22.8174 167.699 20.2598 168.807 18.0098C169.914 15.7422 171.479 14.002 173.5 12.7891C175.539 11.5586 177.859 10.9434 180.461 10.9434C184.363 10.9434 187.431 12.1738 189.663 14.6348C191.913 17.0957 193.038 20.585 193.038 25.1025V28.2139H174.871C175.117 30.0771 175.855 31.5713 177.086 32.6963C178.334 33.8213 179.907 34.3838 181.806 34.3838C184.741 34.3838 187.035 33.3203 188.688 31.1934L192.432 35.3857C191.289 37.0029 189.742 38.2686 187.791 39.1826C185.84 40.0791 183.678 40.5273 181.305 40.5273ZM180.435 17.1133C178.923 17.1133 177.692 17.623 176.743 18.6426C175.812 19.6621 175.214 21.1211 174.95 23.0195H185.55V22.4131C185.515 20.7256 185.058 19.4248 184.179 18.5107C183.3 17.5791 182.052 17.1133 180.435 17.1133ZM231.244 29.9277C231.244 28.4336 230.717 27.291 229.662 26.5C228.607 25.6914 226.709 24.8477 223.967 23.9688C221.225 23.0723 219.054 22.1934 217.454 21.332C213.095 18.9766 210.915 15.8037 210.915 11.8135C210.915 9.73926 211.495 7.89355 212.655 6.27637C213.833 4.6416 215.512 3.36719 217.691 2.45312C219.889 1.53906 222.35 1.08203 225.074 1.08203C227.816 1.08203 230.26 1.58301 232.404 2.58496C234.549 3.56934 236.21 4.9668 237.388 6.77734C238.583 8.58789 239.181 10.6445 239.181 12.9473H231.271C231.271 11.1895 230.717 9.82715 229.609 8.86035C228.502 7.87598 226.946 7.38379 224.942 7.38379C223.009 7.38379 221.506 7.79688 220.434 8.62305C219.361 9.43164 218.825 10.5039 218.825 11.8398C218.825 13.0879 219.449 14.1338 220.697 14.9775C221.963 15.8213 223.817 16.6123 226.261 17.3506C230.761 18.7041 234.039 20.3828 236.096 22.3867C238.152 24.3906 239.181 26.8867 239.181 29.875C239.181 33.1973 237.924 35.8076 235.41 37.7061C232.896 39.5869 229.513 40.5273 225.259 40.5273C222.306 40.5273 219.616 39.9912 217.19 38.9189C214.765 37.8291 212.91 36.3438 211.627 34.4629C210.361 32.582 209.729 30.4023 209.729 27.9238H217.665C217.665 32.1602 220.196 34.2783 225.259 34.2783C227.14 34.2783 228.607 33.9004 229.662 33.1445C230.717 32.3711 231.244 31.2988 231.244 29.9277ZM260.591 40C260.239 39.3145 259.984 38.4619 259.826 37.4424C257.98 39.499 255.581 40.5273 252.628 40.5273C249.833 40.5273 247.513 39.7188 245.667 38.1016C243.839 36.4844 242.925 34.4453 242.925 31.9844C242.925 28.9609 244.041 26.6406 246.273 25.0234C248.523 23.4062 251.767 22.5889 256.003 22.5713H259.51V20.9365C259.51 19.6182 259.167 18.5635 258.481 17.7725C257.813 16.9814 256.75 16.5859 255.291 16.5859C254.008 16.5859 252.997 16.8936 252.259 17.5088C251.538 18.124 251.178 18.9678 251.178 20.04H243.558C243.558 18.3877 244.067 16.8584 245.087 15.4521C246.106 14.0459 247.548 12.9473 249.411 12.1562C251.274 11.3477 253.366 10.9434 255.687 10.9434C259.202 10.9434 261.988 11.8311 264.045 13.6064C266.119 15.3643 267.156 17.8428 267.156 21.042V33.4082C267.174 36.1152 267.552 38.1631 268.29 39.5518V40H260.591ZM254.289 34.7002C255.414 34.7002 256.451 34.4541 257.4 33.9619C258.35 33.4521 259.053 32.7754 259.51 31.9316V27.0273H256.662C252.848 27.0273 250.817 28.3457 250.571 30.9824L250.545 31.4307C250.545 32.3799 250.879 33.1621 251.547 33.7773C252.215 34.3926 253.129 34.7002 254.289 34.7002ZM280.023 11.4707L280.261 14.7666C282.3 12.2178 285.033 10.9434 288.461 10.9434C291.484 10.9434 293.734 11.8311 295.211 13.6064C296.688 15.3818 297.443 18.0361 297.479 21.5693V40H289.858V21.7539C289.858 20.1367 289.507 18.9678 288.804 18.2471C288.101 17.5088 286.932 17.1396 285.297 17.1396C283.152 17.1396 281.544 18.0537 280.472 19.8818V40H272.852V11.4707H280.023ZM312.402 4.45703V11.4707H317.28V17.0605H312.402V31.2988C312.402 32.3535 312.604 33.1094 313.009 33.5664C313.413 34.0234 314.187 34.252 315.329 34.252C316.173 34.252 316.92 34.1904 317.57 34.0674V39.8418C316.076 40.2988 314.538 40.5273 312.956 40.5273C307.612 40.5273 304.888 37.8291 304.782 32.4326V17.0605H300.616V11.4707H304.782V4.45703H312.402ZM319.548 25.4717C319.548 22.6416 320.093 20.1191 321.183 17.9043C322.272 15.6895 323.837 13.9756 325.876 12.7627C327.933 11.5498 330.314 10.9434 333.021 10.9434C336.871 10.9434 340.009 12.1211 342.435 14.4766C344.878 16.832 346.24 20.0312 346.521 24.0742L346.574 26.0254C346.574 30.4023 345.353 33.918 342.909 36.5723C340.466 39.209 337.188 40.5273 333.074 40.5273C328.961 40.5273 325.674 39.209 323.213 36.5723C320.77 33.9355 319.548 30.3496 319.548 25.8145V25.4717ZM327.168 26.0254C327.168 28.7324 327.678 30.8066 328.697 32.248C329.717 33.6719 331.176 34.3838 333.074 34.3838C334.92 34.3838 336.361 33.6807 337.398 32.2744C338.436 30.8506 338.954 28.583 338.954 25.4717C338.954 22.8174 338.436 20.7607 337.398 19.3018C336.361 17.8428 334.902 17.1133 333.021 17.1133C331.158 17.1133 329.717 17.8428 328.697 19.3018C327.678 20.7432 327.168 22.9844 327.168 26.0254ZM366.719 32.1162C366.719 31.1846 366.253 30.4551 365.321 29.9277C364.407 29.3828 362.931 28.8994 360.892 28.4775C354.106 27.0537 350.714 24.1709 350.714 19.8291C350.714 17.2979 351.76 15.1885 353.852 13.501C355.961 11.7959 358.712 10.9434 362.104 10.9434C365.726 10.9434 368.617 11.7959 370.779 13.501C372.959 15.2061 374.049 17.4209 374.049 20.1455H366.429C366.429 19.0557 366.077 18.1592 365.374 17.4561C364.671 16.7354 363.572 16.375 362.078 16.375C360.795 16.375 359.802 16.665 359.099 17.2451C358.396 17.8252 358.044 18.5635 358.044 19.46C358.044 20.3037 358.439 20.9893 359.23 21.5166C360.039 22.0264 361.393 22.4746 363.291 22.8613C365.189 23.2305 366.789 23.6523 368.09 24.127C372.115 25.6035 374.128 28.1611 374.128 31.7998C374.128 34.4014 373.012 36.5107 370.779 38.1279C368.547 39.7275 365.664 40.5273 362.131 40.5273C359.74 40.5273 357.613 40.1055 355.75 39.2617C353.904 38.4004 352.454 37.2314 351.399 35.7549C350.345 34.2607 349.817 32.6523 349.817 30.9297H357.042C357.112 32.2832 357.613 33.3203 358.545 34.041C359.477 34.7617 360.725 35.1221 362.289 35.1221C363.748 35.1221 364.847 34.8496 365.585 34.3047C366.341 33.7422 366.719 33.0127 366.719 32.1162Z" fill="url(#paint0_linear)"/>
    <defs>
        <linearGradient id="paint0_linear" x1="-3" y1="23" x2="373.405" y2="23" gradientUnits="userSpaceOnUse">
            <stop stop-color="#28F5BE"/>
            <stop offset="1" stop-color="#4C388B"/>
        </linearGradient>
    </defs>
</svg>
